@startuml   

class Pessoa { 
    -String nome
    -Int id
    -String telefone
    -String email

    +Void cadastroPessoa()
}
 
class Usuario {
    -String ra
    -String curso
    -Int serie

    +Boolean validarRa()
}

class Administrador {
    -String cargo
    -String siap

    +Boolean validarSiap()
}

class Materiais {
    -Int id
    -String nome
    -Int quantiaTotal
    -Int quantiaDisponivel

    +Void cadastro()
}

class Emprestimo{
    -Int id
    -Date horaDaRetirada
    -Date horaDaDevolucao

    +Void cadastroEmprestimo()
    +Boolean verificacaoDeDisponibilidade()
    +Void devolucao()
    +Void gerarDocumentoAssinatura()
}

class Perdido {
    -Int id
    -String: descricaoItem
    -Date: dataCadastro
    -Date: prazoNormativo
    -String: localizacaoAchado
    -String: identificacaoExtra
    -String: status
    +Void excederItem()
    +Void solicitarRecuperacao()
}

class Relatorio {
    -Date: dataInicial
    -Date: dataFinal
    -String: Formato
    -Void gerarRelatorio()
}


Pessoa <|-- Usuario
Pessoa <|-- Administrador
Emprestimo -- Materiais
Emprestimo -- Usuario
Emprestimo -- Administrador
Perdido -- Relatorio
Emprestimo -- Relatorio

@enduml
